# This file uses feet as units for non-parametric coordinates.

mtllib wall shelf.mtl
g default
v -45.944943 2.474562 32.845062
v -42.896947 2.474562 32.845062
v -45.944943 32.954559 32.845062
v -42.896947 32.954559 32.845062
v -45.944943 32.954559 2.365065
v -42.896947 32.954559 2.365065
v -45.944943 2.474562 2.365065
v -42.896947 2.474562 2.365065
v 42.426646 35.728172 32.850735
v 45.474651 35.728172 32.850735
v 42.426646 66.208168 32.850735
v 45.474651 66.208168 32.850735
v 42.426646 66.208168 2.370735
v 45.474651 66.208168 2.370735
v 42.426646 35.728172 2.370735
v 45.474651 35.728172 2.370735
v -45.948956 2.681420 32.906677
v 45.491038 2.681420 32.906677
v -45.948956 2.681420 2.426676
v 45.491038 2.681420 2.426676
v -45.939374 32.955887 32.878021
v 45.500621 32.955887 32.878021
v -45.939374 36.003883 32.878021
v 45.500621 36.003883 32.878021
v -45.939374 36.003883 2.398020
v 45.500621 36.003883 2.398020
v -45.939374 32.955887 2.398020
v 45.500621 32.955887 2.398020
v 42.452617 2.567844 32.918400
v 45.500621 2.567844 32.918400
v 42.452617 33.047844 32.918400
v 45.500621 33.047844 32.918400
v 42.452617 33.047844 2.438400
v 45.500621 33.047844 2.438400
v 42.452617 2.567844 2.438400
v 45.500621 2.567844 2.438400
v 17.762576 35.911766 32.858196
v 20.810580 35.911766 32.858196
v 17.762576 66.391769 32.858196
v 20.810580 66.391769 32.858196
v 17.762576 66.391769 2.378197
v 20.810580 66.391769 2.378197
v 17.762576 35.911766 2.378197
v 20.810580 35.911766 2.378197
v -45.865346 65.937294 32.878487
v 45.574657 65.937294 32.878487
v -45.865346 65.937294 2.398489
v 45.574657 65.937294 2.398489
v -45.939374 35.929375 32.893532
v -42.891377 35.929375 32.893532
v -45.939374 66.409378 32.893532
v -42.891377 66.409378 32.893532
v -45.939374 66.409378 2.413534
v -42.891377 66.409378 2.413534
v -45.939374 35.929375 2.413534
v -42.891377 35.929375 2.413534
v -21.725079 2.596088 32.887501
v -18.677075 2.596088 32.887501
v -21.725079 33.076088 32.887501
v -18.677075 33.076088 32.887501
v -21.725079 33.076088 2.407501
v -18.677075 33.076088 2.407501
v -21.725079 2.596088 2.407501
v -18.677075 2.596088 2.407501
v 45.370494 68.223373 32.878487
v 44.812724 68.781143 32.878487
v 44.050807 68.985298 32.878487
v 45.574657 67.461449 32.878487
v 45.574657 67.461449 2.398489
v 44.050807 68.985298 2.398489
v 44.812724 68.781143 2.398489
v 45.370494 68.223373 2.398489
v -45.103421 68.781143 32.878487
v -45.661187 68.223373 32.878487
v -45.865346 67.461449 32.878487
v -44.341496 68.985298 32.878487
v -45.865346 67.461449 2.398489
v -45.661187 68.223373 2.398489
v -45.103421 68.781143 2.398489
v -44.341496 68.985298 2.398489
v -45.744798 0.395343 32.906677
v -45.187032 -0.162424 32.906677
v -44.425107 -0.366580 32.906677
v -45.948956 1.157267 32.906677
v -45.187032 -0.162424 2.426676
v -45.744798 0.395343 2.426676
v -45.948956 1.157267 2.426676
v -44.425107 -0.366580 2.426676
v 44.729106 -0.162424 32.906677
v 45.286876 0.395343 32.906677
v 45.491038 1.157267 32.906677
v 43.967189 -0.366580 32.906677
v 45.286876 0.395343 2.426676
v 44.729106 -0.162424 2.426676
v 43.967189 -0.366580 2.426676
v 45.491038 1.157267 2.426676
vt 0.375000 0.000000
vt 0.625000 0.000000
vt 0.375000 0.250000
vt 0.625000 0.250000
vt 0.375000 0.500000
vt 0.625000 0.500000
vt 0.375000 0.750000
vt 0.625000 0.750000
vt 0.375000 1.000000
vt 0.625000 1.000000
vt 0.875000 0.000000
vt 0.875000 0.250000
vt 0.125000 0.000000
vt 0.125000 0.250000
vt 0.375000 0.000000
vt 0.625000 0.000000
vt 0.625000 0.250000
vt 0.375000 0.250000
vt 0.625000 0.500000
vt 0.375000 0.500000
vt 0.625000 0.750000
vt 0.375000 0.750000
vt 0.625000 1.000000
vt 0.375000 1.000000
vt 0.875000 0.000000
vt 0.875000 0.250000
vt 0.125000 0.000000
vt 0.125000 0.250000
vt 0.375000 0.500000
vt 0.375000 0.000000
vt 0.625000 0.000000
vt 0.625000 0.250000
vt 0.375000 0.250000
vt 0.625000 0.500000
vt 0.375000 0.500000
vt 0.625000 0.750000
vt 0.375000 0.750000
vt 0.625000 1.000000
vt 0.375000 1.000000
vt 0.875000 0.000000
vt 0.875000 0.250000
vt 0.125000 0.000000
vt 0.125000 0.250000
vt 0.375000 0.000000
vt 0.625000 0.000000
vt 0.625000 0.250000
vt 0.375000 0.250000
vt 0.625000 0.500000
vt 0.375000 0.500000
vt 0.625000 0.750000
vt 0.375000 0.750000
vt 0.625000 1.000000
vt 0.375000 1.000000
vt 0.875000 0.000000
vt 0.875000 0.250000
vt 0.125000 0.000000
vt 0.125000 0.250000
vt 0.375000 0.000000
vt 0.625000 0.000000
vt 0.625000 0.250000
vt 0.375000 0.250000
vt 0.625000 0.500000
vt 0.375000 0.500000
vt 0.625000 0.750000
vt 0.375000 0.750000
vt 0.625000 1.000000
vt 0.375000 1.000000
vt 0.875000 0.000000
vt 0.875000 0.250000
vt 0.125000 0.000000
vt 0.125000 0.250000
vt 0.625000 0.750000
vt 0.625000 1.000000
vt 0.375000 1.000000
vt 0.375000 0.000000
vt 0.625000 0.000000
vt 0.625000 0.250000
vt 0.375000 0.250000
vt 0.625000 0.500000
vt 0.375000 0.500000
vt 0.625000 0.750000
vt 0.375000 0.750000
vt 0.625000 1.000000
vt 0.375000 1.000000
vt 0.875000 0.000000
vt 0.875000 0.250000
vt 0.125000 0.000000
vt 0.125000 0.250000
vt 0.375000 0.000000
vt 0.625000 0.000000
vt 0.625000 0.250000
vt 0.375000 0.250000
vt 0.625000 0.500000
vt 0.375000 0.500000
vt 0.625000 0.750000
vt 0.375000 0.750000
vt 0.625000 1.000000
vt 0.375000 1.000000
vt 0.875000 0.000000
vt 0.875000 0.250000
vt 0.125000 0.000000
vt 0.125000 0.250000
vt 0.625000 0.000000
vt 0.875000 0.000000
vt 0.875000 0.125013
vt 0.625000 0.250000
vt 0.623069 0.250955
vt 0.875000 0.250000
vt 0.125000 0.000000
vt 0.125000 0.125013
vt 0.620834 0.500000
vt 0.375000 0.125013
vt 0.379166 0.500000
vt 0.375000 0.000000
vt 0.625000 0.125013
vt 0.620834 0.250000
vt 0.379166 0.250000
vt 0.623056 0.499981
vt 0.625000 0.500000
vt 0.625000 0.624987
vt 0.375000 0.750000
vt 0.375000 0.624973
vt 0.376931 0.250955
vt 0.375000 0.250000
vt 0.375000 0.500000
vt 0.125000 0.250000
vt 0.376938 0.499981
vt 0.125000 0.250000
vt 0.875000 0.124988
vt 0.875000 0.250000
vt 0.625000 0.250000
vt 0.620834 1.000000
vt 0.379166 1.000000
vt 0.125000 0.124988
vt 0.625000 0.124988
vt 0.620834 0.750000
vt 0.375000 0.250000
vt 0.375000 0.124988
vt 0.379166 -0.000000
vt 0.620834 -0.000000
vt 0.379166 0.750000
vt 0.375000 0.625013
vt 0.625000 0.500000
vt 0.625000 0.625013
vt 0.366658 -0.000000
vt 0.378961 0.987697
vt 0.372912 -0.000000
vt 0.379064 0.993849
vt 0.376944 0.750949
vt 0.125000 0.000000
vt 0.375000 0.750000
vt 0.627088 -0.000000
vt 0.620936 0.993849
vt 0.633342 -0.000000
vt 0.621039 0.987697
vt 0.625000 0.750000
vt 0.875000 0.000000
vt 0.623033 0.750019
vn 0.000000 0.000000 1.000000
vn 0.000000 0.000000 1.000000
vn 0.000000 0.000000 1.000000
vn 0.000000 0.000000 1.000000
vn 0.000000 1.000000 0.000000
vn 0.000000 1.000000 0.000000
vn 0.000000 1.000000 0.000000
vn 0.000000 1.000000 0.000000
vn 0.000000 0.000000 -1.000000
vn 0.000000 0.000000 -1.000000
vn 0.000000 0.000000 -1.000000
vn 0.000000 0.000000 -1.000000
vn 0.000000 -1.000000 0.000000
vn 0.000000 -1.000000 0.000000
vn 0.000000 -1.000000 0.000000
vn 0.000000 -1.000000 0.000000
vn 1.000000 0.000000 0.000000
vn 1.000000 0.000000 0.000000
vn 1.000000 0.000000 0.000000
vn 1.000000 0.000000 0.000000
vn -1.000000 0.000000 0.000000
vn -1.000000 0.000000 0.000000
vn -1.000000 0.000000 0.000000
vn -1.000000 0.000000 0.000000
vn 0.000000 0.000000 1.000000
vn 0.000000 0.000000 1.000000
vn 0.000000 0.000000 1.000000
vn 0.000000 0.000000 1.000000
vn 0.000000 1.000000 0.000000
vn 0.000000 1.000000 0.000000
vn 0.000000 1.000000 0.000000
vn 0.000000 1.000000 0.000000
vn 0.000000 0.000000 -1.000000
vn 0.000000 0.000000 -1.000000
vn 0.000000 0.000000 -1.000000
vn 0.000000 0.000000 -1.000000
vn 0.000000 -1.000000 0.000000
vn 0.000000 -1.000000 0.000000
vn 0.000000 -1.000000 0.000000
vn 0.000000 -1.000000 0.000000
vn 1.000000 0.000000 0.000000
vn 1.000000 0.000000 0.000000
vn 1.000000 0.000000 0.000000
vn 1.000000 0.000000 0.000000
vn -1.000000 0.000000 0.000000
vn -1.000000 0.000000 0.000000
vn -1.000000 0.000000 0.000000
vn -1.000000 0.000000 0.000000
vn 0.000000 1.000000 0.000000
vn 0.000000 1.000000 0.000000
vn 0.000000 1.000000 0.000000
vn 0.000000 1.000000 0.000000
vn -0.002290 -0.999997 0.000000
vn -0.002290 -0.999997 0.000000
vn 0.002290 -0.999997 0.000000
vn 0.002290 -0.999997 0.000000
vn 0.996036 -0.088957 0.000000
vn 0.996036 -0.088957 0.000000
vn 1.000000 0.000000 0.000000
vn 1.000000 0.000000 0.000000
vn -0.996036 -0.088952 0.000000
vn -0.996036 -0.088952 0.000000
vn -1.000000 0.000000 0.000000
vn -1.000000 0.000000 0.000000
vn 0.000000 0.000000 1.000000
vn 0.000000 0.000000 1.000000
vn 0.000000 0.000000 1.000000
vn 0.000000 0.000000 1.000000
vn 0.000000 1.000000 0.000000
vn 0.000000 1.000000 0.000000
vn 0.000000 1.000000 0.000000
vn 0.000000 1.000000 0.000000
vn 0.000000 0.000000 -1.000000
vn 0.000000 0.000000 -1.000000
vn 0.000000 0.000000 -1.000000
vn 0.000000 0.000000 -1.000000
vn 0.000000 -1.000000 0.000000
vn 0.000000 -1.000000 0.000000
vn 0.000000 -1.000000 0.000000
vn 0.000000 -1.000000 0.000000
vn 1.000000 0.000000 0.000000
vn 1.000000 0.000000 0.000000
vn 1.000000 0.000000 0.000000
vn 1.000000 0.000000 0.000000
vn -1.000000 0.000000 0.000000
vn -1.000000 0.000000 0.000000
vn -1.000000 0.000000 0.000000
vn -1.000000 0.000000 0.000000
vn 0.000000 0.000000 1.000000
vn 0.000000 0.000000 1.000000
vn 0.000000 0.000000 1.000000
vn 0.000000 0.000000 1.000000
vn 0.000000 1.000000 0.000000
vn 0.000000 1.000000 0.000000
vn 0.000000 1.000000 0.000000
vn 0.000000 1.000000 0.000000
vn 0.000000 0.000000 -1.000000
vn 0.000000 0.000000 -1.000000
vn 0.000000 0.000000 -1.000000
vn 0.000000 0.000000 -1.000000
vn 0.000000 -1.000000 0.000000
vn 0.000000 -1.000000 0.000000
vn 0.000000 -1.000000 0.000000
vn 0.000000 -1.000000 0.000000
vn 1.000000 0.000000 0.000000
vn 1.000000 0.000000 0.000000
vn 1.000000 0.000000 0.000000
vn 1.000000 0.000000 0.000000
vn -1.000000 0.000000 0.000000
vn -1.000000 0.000000 0.000000
vn -1.000000 0.000000 0.000000
vn -1.000000 0.000000 0.000000
vn 0.000000 0.000000 1.000000
vn 0.000000 0.000000 1.000000
vn 0.000000 0.000000 1.000000
vn 0.000000 0.000000 1.000000
vn 0.000000 1.000000 0.000000
vn 0.000000 1.000000 0.000000
vn 0.000000 1.000000 0.000000
vn 0.000000 1.000000 0.000000
vn 0.000000 0.000000 -1.000000
vn 0.000000 0.000000 -1.000000
vn 0.000000 0.000000 -1.000000
vn 0.000000 0.000000 -1.000000
vn 0.000000 -1.000000 0.000000
vn 0.000000 -1.000000 0.000000
vn 0.000000 -1.000000 0.000000
vn 0.000000 -1.000000 0.000000
vn 1.000000 0.000000 0.000000
vn 1.000000 0.000000 0.000000
vn 1.000000 0.000000 0.000000
vn 1.000000 0.000000 0.000000
vn -1.000000 0.000000 0.000000
vn -1.000000 0.000000 0.000000
vn -1.000000 0.000000 0.000000
vn -1.000000 0.000000 0.000000
vn -0.002290 0.999997 0.000000
vn -0.002290 0.999997 0.000000
vn 0.002290 0.999997 0.000000
vn 0.002290 0.999997 0.000000
vn 0.000000 -1.000000 0.000000
vn 0.000000 -1.000000 0.000000
vn 0.000000 -1.000000 0.000000
vn 0.000000 -1.000000 0.000000
vn 1.000000 0.000000 0.000000
vn 1.000000 0.000000 0.000000
vn 0.996036 0.088950 0.000000
vn 0.996036 0.088950 0.000000
vn -1.000000 0.000000 0.000000
vn -1.000000 0.000000 0.000000
vn -0.996036 0.088951 0.000000
vn -0.996036 0.088951 0.000000
vn 0.000000 0.000000 1.000000
vn 0.000000 0.000000 1.000000
vn 0.000000 0.000000 1.000000
vn 0.000000 0.000000 1.000000
vn 0.000000 1.000000 0.000000
vn 0.000000 1.000000 0.000000
vn 0.000000 1.000000 0.000000
vn 0.000000 1.000000 0.000000
vn 0.000000 0.000000 -1.000000
vn 0.000000 0.000000 -1.000000
vn 0.000000 0.000000 -1.000000
vn 0.000000 0.000000 -1.000000
vn 0.000000 -1.000000 0.000000
vn 0.000000 -1.000000 0.000000
vn 0.000000 -1.000000 0.000000
vn 0.000000 -1.000000 0.000000
vn 1.000000 0.000000 0.000000
vn 1.000000 0.000000 0.000000
vn 1.000000 0.000000 0.000000
vn 1.000000 0.000000 0.000000
vn -1.000000 0.000000 0.000000
vn -1.000000 0.000000 0.000000
vn -1.000000 0.000000 0.000000
vn -1.000000 0.000000 0.000000
vn 0.000000 0.000000 1.000000
vn 0.000000 0.000000 1.000000
vn 0.000000 0.000000 1.000000
vn 0.000000 0.000000 1.000000
vn 0.000000 1.000000 0.000000
vn 0.000000 1.000000 0.000000
vn 0.000000 1.000000 0.000000
vn 0.000000 1.000000 0.000000
vn 0.000000 0.000000 -1.000000
vn 0.000000 0.000000 -1.000000
vn 0.000000 0.000000 -1.000000
vn 0.000000 0.000000 -1.000000
vn 0.000000 -1.000000 0.000000
vn 0.000000 -1.000000 0.000000
vn 0.000000 -1.000000 0.000000
vn 0.000000 -1.000000 0.000000
vn 1.000000 0.000000 0.000000
vn 1.000000 0.000000 0.000000
vn 1.000000 0.000000 0.000000
vn 1.000000 0.000000 0.000000
vn -1.000000 0.000000 0.000000
vn -1.000000 0.000000 0.000000
vn -1.000000 0.000000 0.000000
vn -1.000000 0.000000 0.000000
vn 0.258820 0.965926 0.000000
vn 0.258820 0.965926 0.000000
vn 0.707104 0.707110 0.000000
vn 0.866024 0.500002 0.000000
vn 0.866024 0.500002 0.000000
vn 0.707104 0.707110 0.000000
vn -0.866027 0.499998 0.000000
vn -0.866027 0.499998 0.000000
vn -0.707111 0.707102 0.000000
vn -0.707111 0.707102 0.000000
vn -0.258816 0.965927 0.000000
vn -0.258816 0.965927 0.000000
vn -0.000000 0.000000 1.000000
vn -0.000000 0.000000 1.000000
vn -0.000000 0.000000 1.000000
vn -0.000000 0.000000 1.000000
vn -0.000000 0.000000 1.000000
vn -0.000000 0.000000 1.000000
vn -0.000000 0.000000 1.000000
vn -0.000000 0.000000 1.000000
vn -0.000000 0.000000 1.000000
vn -0.000000 0.000000 1.000000
vn 0.000000 0.000000 -1.000000
vn 0.000000 0.000000 -1.000000
vn 0.000000 0.000000 -1.000000
vn 0.000000 0.000000 -1.000000
vn 0.000000 0.000000 -1.000000
vn 0.000000 0.000000 -1.000000
vn 0.000000 0.000000 -1.000000
vn 0.000000 0.000000 -1.000000
vn 0.000000 0.000000 -1.000000
vn 0.000000 0.000000 -1.000000
vn -0.258818 -0.965926 0.000000
vn -0.258818 -0.965926 0.000000
vn -0.707107 -0.707107 0.000000
vn -0.866025 -0.500001 0.000000
vn -0.866025 -0.500001 0.000000
vn -0.707107 -0.707107 0.000000
vn 0.866024 -0.500003 0.000000
vn 0.866024 -0.500003 0.000000
vn 0.500005 -0.866022 0.000000
vn 0.500005 -0.866022 0.000000
vn -0.000000 0.000000 1.000000
vn -0.000000 0.000000 1.000000
vn -0.000000 0.000000 1.000000
vn -0.000000 0.000000 1.000000
vn -0.000000 0.000000 1.000000
vn -0.000000 0.000000 1.000000
vn -0.000000 0.000000 1.000000
vn -0.000000 0.000000 1.000000
vn -0.000000 0.000000 1.000000
vn -0.000000 0.000000 1.000000
vn -0.000000 0.000000 -1.000000
vn -0.000000 0.000000 -1.000000
vn -0.000000 0.000000 -1.000000
vn -0.000000 0.000000 -1.000000
vn -0.000000 0.000000 -1.000000
vn -0.000000 0.000000 -1.000000
vn -0.000000 0.000000 -1.000000
vn -0.000000 0.000000 -1.000000
vn -0.000000 0.000000 -1.000000
vn -0.000000 0.000000 -1.000000
s off
g pCube10
usemtl initialShadingGroup
f 1/1/1 2/2/2 4/4/3 3/3/4
f 3/3/5 4/4/6 6/6/7 5/5/8
f 5/5/9 6/6/10 8/8/11 7/7/12
f 7/7/13 8/8/14 2/10/15 1/9/16
f 2/2/17 8/11/18 6/12/19 4/4/20
f 7/13/21 1/1/22 3/3/23 5/14/24
f 9/15/25 10/16/26 12/17/27 11/18/28
f 11/18/29 12/17/30 14/19/31 13/20/32
f 13/20/33 14/19/34 16/21/35 15/22/36
f 15/22/37 16/21/38 10/23/39 9/24/40
f 10/16/41 16/25/42 14/26/43 12/17/44
f 15/27/45 9/15/46 11/18/47 13/28/48
f 17/137/49 18/131/50 20/143/51 19/29/52
s 1
f 83/133/53 88/141/54 95/136/55 92/132/56
f 91/135/57 96/129/58 20/130/59 18/131/60
s 3
f 87/134/61 84/138/62 17/137/63 19/128/64
s off
f 21/30/65 22/31/66 24/32/67 23/33/68
f 23/33/69 24/32/70 26/34/71 25/35/72
f 25/35/73 26/34/74 28/36/75 27/37/76
f 27/37/77 28/36/78 22/38/79 21/39/80
f 22/31/81 28/40/82 26/41/83 24/32/84
f 27/42/85 21/30/86 23/33/87 25/43/88
f 29/44/89 30/45/90 32/46/91 31/47/92
f 31/47/93 32/46/94 34/48/95 33/49/96
f 33/49/97 34/48/98 36/50/99 35/51/100
f 35/51/101 36/50/102 30/52/103 29/53/104
f 30/45/105 36/54/106 34/55/107 32/46/108
f 35/56/109 29/44/110 31/47/111 33/57/112
f 37/58/113 38/59/114 40/60/115 39/61/116
f 39/61/117 40/60/118 42/62/119 41/63/120
f 41/63/121 42/62/122 44/64/123 43/65/124
f 43/65/125 44/64/126 38/66/127 37/67/128
f 38/59/129 44/68/130 42/69/131 40/60/132
f 43/70/133 37/58/134 39/61/135 41/71/136
s 4
f 80/113/137 76/117/138 67/116/139 70/111/140
s off
f 47/121/141 48/72/142 46/73/143 45/74/144
s 5
f 46/103/145 48/104/146 69/105/147 68/115/148
s 6
f 47/109/149 45/114/150 75/112/151 77/110/152
s off
f 49/75/153 50/76/154 52/77/155 51/78/156
f 51/78/157 52/77/158 54/79/159 53/80/160
f 53/80/161 54/79/162 56/81/163 55/82/164
f 55/82/165 56/81/166 50/83/167 49/84/168
f 50/76/169 56/85/170 54/86/171 52/77/172
f 55/87/173 49/75/174 51/78/175 53/88/176
f 57/89/177 58/90/178 60/91/179 59/92/180
f 59/92/181 60/91/182 62/93/183 61/94/184
f 61/94/185 62/93/186 64/95/187 63/96/188
f 63/96/189 64/95/190 58/97/191 57/98/192
f 58/90/193 64/99/194 62/100/195 60/91/196
f 63/101/197 57/89/198 59/92/199 61/102/200
s 4
f 67/116/139 66/107/201 71/118/202 70/111/140
s 5
f 66/107/203 65/106/204 72/119/205 71/118/206
f 65/106/204 68/115/148 69/105/147 72/108/205
s 6
f 75/112/151 74/124/207 78/126/208 77/110/152
f 74/124/207 73/123/209 79/127/210 78/125/208
s 4
f 73/123/211 76/117/138 80/113/137 79/127/212
s off
f 73/123/213 74/124/214 75/112/215 45/114/216 46/103/217 68/115/218 65/106/219 66/107/220 67/116/221 76/117/222
f 70/111/223 71/118/224 72/119/225 69/120/226 48/72/227 47/121/228 77/122/229 78/125/230 79/127/231 80/113/232
s 1
f 83/133/53 82/148/233 85/149/234 88/141/54
s 3
f 82/148/235 81/146/236 86/151/237 85/149/238
f 81/145/236 84/138/62 87/134/61 86/150/237
s 1
f 91/135/57 90/154/239 93/157/240 96/129/58
f 90/155/239 89/153/241 94/158/242 93/156/240
f 89/153/241 92/132/56 95/136/55 94/158/242
s off
f 89/152/243 90/154/244 91/135/245 18/131/246 17/137/247 84/138/248 81/145/249 82/147/250 83/139/251 92/140/252
f 93/156/253 94/158/254 95/136/255 88/141/256 85/149/257 86/151/258 87/142/259 19/29/260 20/143/261 96/144/262
