# This file uses feet as units for non-parametric coordinates.

mtllib decoration 4.mtl
g default
v 7.579755 34.602268 0.614508
v 7.834293 34.602268 0.000000
v 7.579755 34.602268 -0.614508
v 0.000000 42.186363 -0.614508
v -0.614508 41.922829 -0.614508
v -0.614508 42.186363 0.000000
v -0.614508 41.922829 0.614508
v 0.000000 42.186363 0.614508
v 0.614508 41.922829 0.614508
v 0.614508 42.186363 0.000000
v 0.614508 41.922829 -0.614508
v 0.614508 34.602268 7.579755
v 0.000000 34.602268 7.834293
v -0.614508 34.602268 7.579755
v -7.579755 34.602268 0.614508
v -7.834293 34.602268 0.000000
v -7.579755 34.602268 -0.614508
v 0.000000 27.018166 -0.614508
v 0.614508 27.281702 -0.614508
v 0.614508 27.018166 0.000000
v 0.614508 27.281702 0.614508
v 0.000000 27.018166 0.614508
v -0.614508 27.281702 0.614508
v -0.614508 27.018166 0.000000
v -0.614508 27.281702 -0.614508
v -0.614508 34.602268 -7.579755
v 0.000000 34.602268 -7.834293
v 0.614508 34.602268 -7.579755
v 0.000000 42.449806 0.000000
v 0.000000 26.754728 0.000000
v -2.908291 63.939510 -2.112997
v -1.110868 63.939510 -3.418901
v 1.110868 63.939510 -3.418900
v 2.908290 63.939510 -2.112996
v 3.594844 63.939510 0.000000
v 2.908290 63.939510 2.112997
v 1.110867 63.939510 3.418901
v -1.110869 63.939510 3.418900
v -2.908291 63.939510 2.112997
v -3.594845 63.939510 0.000000
v -1.449662 45.936733 -1.053241
v -0.553722 45.936733 -1.704180
v 0.553721 45.936733 -1.704180
v 1.449661 45.936733 -1.053241
v 1.791880 45.936733 0.000000
v 1.449661 45.936733 1.053241
v 0.553721 45.936733 1.704180
v -0.553722 45.936733 1.704179
v -1.449662 45.936733 1.053241
v -1.791881 45.936733 -0.000000
v -0.000001 63.939510 0.000000
v -0.000000 45.936733 -0.000000
v 5.557745 42.788593 0.450579
v 5.744381 42.788593 0.000000
v 5.557745 42.788593 -0.450579
v 0.000000 47.780312 -0.450579
v -0.450579 47.601456 -0.450579
v -0.450579 47.780312 0.000000
v -0.450579 47.601456 0.450579
v 0.000000 47.780312 0.450579
v 0.450579 47.601456 0.450579
v 0.450579 47.780312 0.000000
v 0.450579 47.601456 -0.450579
v 0.450579 42.788593 5.557745
v 0.000000 42.788593 5.744381
v -0.450579 42.788593 5.557745
v -5.557745 42.788593 0.450579
v -5.744381 42.788593 0.000000
v -5.557745 42.788593 -0.450579
v 0.000000 37.796875 -0.450579
v 0.450579 37.975731 -0.450579
v 0.450579 37.796875 0.000000
v 0.450579 37.975731 0.450579
v 0.000000 37.796875 0.450579
v -0.450579 37.975731 0.450579
v -0.450579 37.796875 0.000000
v -0.450579 37.975731 -0.450579
v -0.450579 42.788593 -5.557745
v 0.000000 42.788593 -5.744381
v 0.450579 42.788593 -5.557745
v 0.000000 47.959244 0.000000
v 0.000000 37.617943 0.000000
v 5.327587 -2.039922 -3.870719
v 2.034957 -2.039922 -6.262955
v -2.034958 -2.039922 -6.262954
v -5.327588 -2.039922 -3.870718
v -6.585260 -2.039922 0.000001
v -5.327587 -2.039922 3.870719
v -2.034957 -2.039922 6.262955
v 2.034958 -2.039922 6.262954
v 5.327587 -2.039922 3.870718
v 6.585259 -2.039922 0.000000
v 2.655580 30.938690 -1.929392
v 1.014341 30.938690 -3.121823
v -1.014342 30.938690 -3.121822
v -2.655581 30.938690 -1.929392
v -3.282478 30.938690 0.000000
v -2.655580 30.938690 1.929392
v -1.014341 30.938690 3.121822
v 1.014341 30.938690 3.121822
v 2.655580 30.938690 1.929392
v 3.282477 30.938690 -0.000000
v 0.000000 -2.039922 0.000000
v -0.000000 30.938690 -0.000000
vt 0.556244 0.925008
vt 0.593741 0.925008
vt 0.481252 0.925008
vt 0.518748 0.925008
vt 0.518748 0.500000
vt 0.268748 0.500000
vt 0.481252 0.500000
vt 0.731252 0.500000
vt 0.768748 0.500000
vt 1.018748 0.500000
vt 1.231252 0.500000
vt 0.981252 0.500000
vt 0.556244 0.925007
vt 0.518748 0.925007
vt 0.481252 0.925007
vt 0.593741 0.925007
vt 0.750000 0.500000
vt 0.565113 0.934887
vt 0.484738 0.969476
vt 0.545785 0.969476
vt 0.500000 0.934887
vt 0.532556 0.934887
vt 0.500000 0.500000
vt 1.250000 0.500000
vt 0.250000 0.500000
vt 0.565113 0.934887
vt 0.532556 0.934887
vt 0.500000 0.934887
vt 0.545785 0.969476
vt 0.484738 0.969476
vt 1.000000 0.500000
vt 0.500000 1.000000
vt 0.500000 1.000000
vt 0.375000 0.312500
vt 0.400000 0.312500
vt 0.400000 0.688440
vt 0.375000 0.688440
vt 0.425000 0.312500
vt 0.425000 0.688440
vt 0.450000 0.312500
vt 0.450000 0.688440
vt 0.475000 0.312500
vt 0.475000 0.688440
vt 0.500000 0.312500
vt 0.500000 0.688440
vt 0.525000 0.312500
vt 0.525000 0.688440
vt 0.550000 0.312500
vt 0.550000 0.688440
vt 0.575000 0.312500
vt 0.575000 0.688440
vt 0.600000 0.312500
vt 0.600000 0.688440
vt 0.625000 0.312500
vt 0.625000 0.688440
vt 0.548284 0.007647
vt 0.626409 0.064409
vt 0.500000 0.150000
vt 0.451716 0.007647
vt 0.373591 0.064409
vt 0.343750 0.156250
vt 0.373591 0.248091
vt 0.451716 0.304853
vt 0.548284 0.304853
vt 0.626409 0.248091
vt 0.656250 0.156250
vt 0.626409 0.935591
vt 0.548284 0.992353
vt 0.500000 0.837500
vt 0.451716 0.992353
vt 0.373591 0.935591
vt 0.343750 0.843750
vt 0.373591 0.751909
vt 0.451716 0.695147
vt 0.548284 0.695147
vt 0.626409 0.751909
vt 0.656250 0.843750
vt 0.768748 0.500000
vt 0.750000 0.500000
vt 0.532432 0.935135
vt 0.556244 0.925008
vt 0.731252 0.500000
vt 0.518748 0.925008
vt 0.593741 0.925008
vt 0.564865 0.935135
vt 1.000000 0.500000
vt 1.018748 0.500000
vt 0.556244 0.925008
vt 0.981252 0.500000
vt 0.481252 0.925008
vt 0.484678 0.969355
vt 0.250000 0.500000
vt 0.268748 0.500000
vt 0.545967 0.969355
vt 1.231252 0.500000
vt 1.250000 0.500000
vt 0.518748 0.925008
vt 0.500000 0.935135
vt 0.500000 0.500000
vt 0.518748 0.500000
vt 0.481252 0.500000
vt 0.481252 0.925008
vt 0.593741 0.925008
vt 0.532433 0.935135
vt 0.500000 0.935135
vt 0.484678 0.969355
vt 0.545967 0.969355
vt 0.564865 0.935135
vt 0.500000 1.000000
vt 0.500000 1.000000
vt 0.375000 0.312500
vt 0.400000 0.312500
vt 0.400000 0.688440
vt 0.375000 0.688440
vt 0.425000 0.312500
vt 0.425000 0.688440
vt 0.450000 0.312500
vt 0.450000 0.688440
vt 0.475000 0.312500
vt 0.475000 0.688440
vt 0.500000 0.312500
vt 0.500000 0.688440
vt 0.525000 0.312500
vt 0.525000 0.688440
vt 0.550000 0.312500
vt 0.550000 0.688440
vt 0.575000 0.312500
vt 0.575000 0.688440
vt 0.600000 0.312500
vt 0.600000 0.688440
vt 0.625000 0.312500
vt 0.625000 0.688440
vt 0.548284 0.007647
vt 0.626409 0.064409
vt 0.500000 0.150000
vt 0.451716 0.007647
vt 0.373591 0.064409
vt 0.343750 0.156250
vt 0.373591 0.248091
vt 0.451716 0.304853
vt 0.548284 0.304853
vt 0.626409 0.248091
vt 0.656250 0.156250
vt 0.626409 0.935591
vt 0.548284 0.992353
vt 0.500000 0.837500
vt 0.451716 0.992353
vt 0.373591 0.935591
vt 0.343750 0.843750
vt 0.373591 0.751909
vt 0.451716 0.695147
vt 0.548284 0.695147
vt 0.626409 0.751909
vt 0.656250 0.843750
vn 0.614807 -0.585003 -0.528945
vn 0.694237 -0.660718 -0.285459
vn 0.671001 -0.680732 -0.293874
vn 0.561062 -0.608620 -0.561062
vn 0.694237 -0.660718 0.285459
vn 0.614807 -0.585003 0.528945
vn 0.561062 -0.608620 0.561062
vn 0.671001 -0.680732 0.293874
vn -0.561062 0.608620 -0.561062
vn -0.293872 0.680733 -0.671001
vn -0.285457 0.660718 -0.694237
vn -0.528945 0.585004 -0.614807
vn 0.293872 0.680733 -0.671001
vn 0.561062 0.608620 -0.561062
vn 0.528945 0.585004 -0.614807
vn 0.285457 0.660718 -0.694237
vn -0.561062 0.608620 0.561062
vn -0.671001 0.680733 0.293870
vn -0.694238 0.660719 0.285455
vn -0.614807 0.585004 0.528944
vn -0.671001 0.680733 -0.293870
vn -0.614807 0.585004 -0.528944
vn -0.694238 0.660719 -0.285455
vn 0.561062 0.608620 0.561062
vn 0.293872 0.680733 0.671001
vn 0.285457 0.660718 0.694237
vn 0.528945 0.585004 0.614807
vn -0.293872 0.680733 0.671001
vn -0.528945 0.585004 0.614807
vn -0.285457 0.660718 0.694237
vn 0.614807 0.585004 0.528944
vn -0.614807 -0.585003 0.528945
vn -0.561062 -0.608620 0.561062
vn -0.528945 -0.585004 0.614807
vn 0.528945 -0.585004 0.614807
vn 0.614807 0.585004 -0.528944
vn -0.528945 -0.585004 -0.614807
vn -0.561062 -0.608620 -0.561062
vn -0.614807 -0.585003 -0.528945
vn 0.528945 -0.585004 -0.614807
vn 0.694238 0.660719 0.285455
vn 0.671001 0.680733 0.293870
vn 0.694238 0.660719 -0.285455
vn 0.671001 0.680733 -0.293870
vn 0.285458 -0.660718 0.694237
vn 0.293873 -0.680732 0.671001
vn -0.285458 -0.660718 0.694237
vn -0.293873 -0.680732 0.671001
vn -0.694237 -0.660718 0.285459
vn -0.671001 -0.680732 0.293874
vn -0.694237 -0.660718 -0.285459
vn -0.671001 -0.680732 -0.293874
vn 0.293873 -0.680732 -0.671001
vn 0.285458 -0.660718 -0.694237
vn -0.293873 -0.680732 -0.671001
vn -0.285458 -0.660718 -0.694237
vn 0.366638 0.855074 -0.366640
vn -0.366638 0.855074 -0.366640
vn -0.366638 0.855074 0.366640
vn 0.366638 0.855074 0.366640
vn -0.366637 -0.855076 -0.366637
vn 0.366637 -0.855076 -0.366637
vn 0.366637 -0.855076 0.366637
vn -0.366637 -0.855076 0.366637
vn -0.585137 -0.094818 -0.805372
vn -0.585137 -0.094818 -0.805372
vn -0.585137 -0.094818 -0.805372
vn -0.585137 -0.094818 -0.805372
vn 0.000000 -0.094818 -0.995495
vn 0.000000 -0.094818 -0.995495
vn 0.000000 -0.094818 -0.995495
vn 0.000000 -0.094818 -0.995495
vn 0.585137 -0.094818 -0.805372
vn 0.585137 -0.094818 -0.805372
vn 0.585137 -0.094818 -0.805372
vn 0.585137 -0.094818 -0.805372
vn 0.946772 -0.094818 -0.307625
vn 0.946772 -0.094818 -0.307625
vn 0.946772 -0.094818 -0.307624
vn 0.946772 -0.094818 -0.307624
vn 0.946772 -0.094818 0.307625
vn 0.946772 -0.094818 0.307625
vn 0.946772 -0.094818 0.307625
vn 0.946772 -0.094818 0.307625
vn 0.585137 -0.094818 0.805372
vn 0.585137 -0.094818 0.805372
vn 0.585137 -0.094818 0.805372
vn 0.585137 -0.094818 0.805372
vn -0.000000 -0.094818 0.995495
vn -0.000000 -0.094818 0.995495
vn -0.000000 -0.094818 0.995495
vn -0.000000 -0.094818 0.995495
vn -0.585137 -0.094818 0.805372
vn -0.585137 -0.094818 0.805372
vn -0.585137 -0.094818 0.805372
vn -0.585137 -0.094818 0.805372
vn -0.946772 -0.094818 0.307625
vn -0.946772 -0.094818 0.307625
vn -0.946772 -0.094818 0.307624
vn -0.946772 -0.094818 0.307624
vn -0.946772 -0.094818 -0.307625
vn -0.946772 -0.094818 -0.307625
vn -0.946772 -0.094818 -0.307625
vn -0.946772 -0.094818 -0.307625
vn 0.000000 1.000000 -0.000000
vn 0.000000 1.000000 -0.000001
vn 0.000000 1.000000 -0.000000
vn 0.000000 1.000000 -0.000001
vn 0.000000 1.000000 -0.000002
vn 0.000000 1.000000 0.000000
vn 0.000000 1.000000 0.000001
vn 0.000000 1.000000 0.000001
vn 0.000000 1.000000 0.000000
vn 0.000000 1.000000 0.000000
vn 0.000000 1.000000 0.000000
vn 0.000000 -1.000000 0.000004
vn 0.000000 -1.000000 -0.000001
vn 0.000000 -1.000000 -0.000000
vn 0.000000 -1.000000 -0.000003
vn 0.000000 -1.000000 -0.000002
vn 0.000000 -1.000000 0.000004
vn 0.000000 -1.000000 0.000004
vn 0.000000 -1.000000 -0.000001
vn 0.000000 -1.000000 -0.000002
vn 0.000000 -1.000000 -0.000005
vn 0.000000 -1.000000 0.000000
vn 0.591149 -0.627251 -0.507050
vn 0.659410 -0.699520 -0.275411
vn 0.636700 -0.717422 -0.282700
vn 0.539124 -0.647063 -0.539124
vn 0.659410 -0.699520 0.275411
vn 0.591149 -0.627251 0.507050
vn 0.539124 -0.647063 0.539124
vn 0.636700 -0.717422 0.282700
vn -0.539124 0.647063 -0.539125
vn -0.282694 0.717423 -0.636701
vn -0.275405 0.699521 -0.659411
vn -0.507050 0.627251 -0.591149
vn 0.282694 0.717423 -0.636701
vn 0.539124 0.647063 -0.539124
vn 0.507050 0.627251 -0.591149
vn 0.275405 0.699521 -0.659411
vn -0.539124 0.647063 0.539125
vn -0.636700 0.717422 0.282700
vn -0.659410 0.699520 0.275411
vn -0.591148 0.627250 0.507051
vn -0.636700 0.717422 -0.282700
vn -0.591148 0.627250 -0.507051
vn -0.659410 0.699520 -0.275411
vn 0.539124 0.647063 0.539124
vn 0.282694 0.717423 0.636701
vn 0.275405 0.699521 0.659411
vn 0.507050 0.627251 0.591149
vn -0.282694 0.717423 0.636701
vn -0.507050 0.627251 0.591149
vn -0.275405 0.699521 0.659411
vn 0.591148 0.627250 0.507051
vn -0.591149 -0.627251 0.507050
vn -0.539124 -0.647063 0.539124
vn -0.507050 -0.627251 0.591148
vn 0.507050 -0.627251 0.591148
vn 0.591148 0.627250 -0.507051
vn -0.507050 -0.627251 -0.591148
vn -0.539124 -0.647063 -0.539124
vn -0.591149 -0.627251 -0.507050
vn 0.507050 -0.627251 -0.591148
vn 0.659410 0.699520 0.275411
vn 0.636700 0.717422 0.282700
vn 0.659410 0.699520 -0.275411
vn 0.636700 0.717422 -0.282700
vn 0.275405 -0.699521 0.659411
vn 0.282694 -0.717423 0.636701
vn -0.275405 -0.699521 0.659411
vn -0.282694 -0.717423 0.636701
vn -0.659410 -0.699520 0.275411
vn -0.636700 -0.717422 0.282700
vn -0.659410 -0.699520 -0.275411
vn -0.636700 -0.717422 -0.282700
vn 0.282694 -0.717423 -0.636701
vn 0.275405 -0.699521 -0.659411
vn -0.282694 -0.717423 -0.636701
vn -0.275405 -0.699521 -0.659411
vn 0.346192 0.871952 -0.346194
vn -0.346192 0.871952 -0.346194
vn -0.346192 0.871952 0.346194
vn 0.346192 0.871952 0.346194
vn -0.346192 -0.871952 -0.346194
vn 0.346192 -0.871952 -0.346194
vn 0.346192 -0.871952 0.346194
vn -0.346192 -0.871952 0.346194
vn 0.585137 0.094818 -0.805372
vn 0.585137 0.094818 -0.805372
vn 0.585137 0.094818 -0.805372
vn 0.585137 0.094818 -0.805372
vn -0.000000 0.094818 -0.995495
vn -0.000000 0.094818 -0.995495
vn -0.000000 0.094818 -0.995495
vn -0.000000 0.094818 -0.995495
vn -0.585137 0.094818 -0.805372
vn -0.585137 0.094818 -0.805372
vn -0.585137 0.094818 -0.805372
vn -0.585137 0.094818 -0.805372
vn -0.946772 0.094818 -0.307625
vn -0.946772 0.094818 -0.307625
vn -0.946772 0.094818 -0.307625
vn -0.946772 0.094818 -0.307625
vn -0.946772 0.094818 0.307625
vn -0.946772 0.094818 0.307625
vn -0.946772 0.094818 0.307625
vn -0.946772 0.094818 0.307625
vn -0.585137 0.094818 0.805372
vn -0.585137 0.094818 0.805372
vn -0.585137 0.094818 0.805372
vn -0.585137 0.094818 0.805372
vn 0.000000 0.094818 0.995495
vn 0.000000 0.094818 0.995495
vn 0.000000 0.094818 0.995495
vn 0.000000 0.094818 0.995495
vn 0.585137 0.094818 0.805372
vn 0.585137 0.094818 0.805372
vn 0.585137 0.094818 0.805372
vn 0.585137 0.094818 0.805372
vn 0.946772 0.094818 0.307625
vn 0.946772 0.094818 0.307625
vn 0.946772 0.094818 0.307625
vn 0.946772 0.094818 0.307625
vn 0.946772 0.094818 -0.307625
vn 0.946772 0.094818 -0.307625
vn 0.946772 0.094818 -0.307625
vn 0.946772 0.094818 -0.307625
vn 0.000000 -1.000000 0.000000
vn 0.000000 -1.000000 0.000000
vn 0.000000 -1.000000 -0.000000
vn 0.000000 -1.000000 0.000000
vn 0.000000 -1.000000 -0.000000
vn 0.000000 -1.000000 -0.000000
vn 0.000000 -1.000000 -0.000000
vn 0.000000 -1.000000 -0.000000
vn 0.000000 -1.000000 -0.000000
vn 0.000000 -1.000000 0.000000
vn 0.000000 -1.000000 0.000000
vn 0.000000 1.000000 0.000001
vn 0.000000 1.000000 0.000000
vn 0.000000 1.000000 0.000000
vn 0.000000 1.000000 0.000000
vn 0.000000 1.000000 -0.000001
vn 0.000000 1.000000 -0.000001
vn 0.000000 1.000000 0.000001
vn 0.000000 1.000000 0.000001
vn 0.000000 1.000000 0.000000
vn 0.000000 1.000000 -0.000001
vn 0.000000 1.000000 0.000000
s 1
g pasted__pPlatonic1
usemtl initialShadingGroup
f 3/9/1 2/17/2 20/27/3 19/13/4
s 2
f 2/17/5 1/8/6 21/14/7 20/27/8
s 3
f 5/2/9 4/18/10 27/31/11 26/10/12
s 4
f 4/18/13 11/1/14 28/12/15 27/31/16
s 5
f 7/3/17 6/19/18 16/25/19 15/6/20
s 3
f 6/20/21 5/2/9 17/11/22 16/24/23
s 6
f 9/4/24 8/21/25 13/23/26 12/5/27
s 5
f 8/21/28 7/3/17 14/7/29 13/23/30
s 6
f 1/8/31 9/4/24 12/5/27
s 5
f 7/3/17 15/6/20 14/7/29
s 7
f 15/6/32 23/15/33 14/7/34
s 2
f 12/5/35 21/14/7 1/8/6
s 4
f 28/12/15 11/1/14 3/9/36
s 3
f 26/10/12 17/11/22 5/2/9
s 8
f 26/10/37 25/16/38 17/11/39
s 1
f 28/12/40 3/9/1 19/13/4
s 6
f 1/8/31 2/17/41 10/22/42 9/4/24
s 4
f 2/17/43 3/9/36 11/1/14 10/22/44
s 2
f 12/5/35 13/23/45 22/28/46 21/14/7
s 7
f 13/23/47 14/7/34 23/15/33 22/28/48
f 15/6/32 16/25/49 24/30/50 23/15/33
s 8
f 16/24/51 17/11/39 25/16/38 24/29/52
s 1
f 19/13/4 18/26/53 27/31/54 28/12/40
s 8
f 18/26/55 25/16/38 26/10/37 27/31/56
s 4
f 10/22/44 11/1/14 4/18/13 29/32/57
s 3
f 4/18/10 5/2/9 6/20/21 29/32/58
s 5
f 6/19/18 7/3/17 8/21/28 29/32/59
s 6
f 8/21/25 9/4/24 10/22/42 29/32/60
s 8
f 24/29/52 25/16/38 18/26/55 30/33/61
s 1
f 18/26/53 19/13/4 20/27/3 30/33/62
s 2
f 20/27/8 21/14/7 22/28/46 30/33/63
s 7
f 22/28/48 23/15/33 24/30/50 30/33/64
s off
f 31/34/65 32/35/66 42/36/67 41/37/68
f 32/35/69 33/38/70 43/39/71 42/36/72
f 33/38/73 34/40/74 44/41/75 43/39/76
f 34/40/77 35/42/78 45/43/79 44/41/80
f 35/42/81 36/44/82 46/45/83 45/43/84
f 36/44/85 37/46/86 47/47/87 46/45/88
f 37/46/89 38/48/90 48/49/91 47/47/92
f 38/48/93 39/50/94 49/51/95 48/49/96
f 39/50/97 40/52/98 50/53/99 49/51/100
f 40/52/101 31/54/102 41/55/103 50/53/104
s 9
f 32/56/105 31/57/106 51/58/107
f 33/59/108 32/56/105 51/58/107
f 34/60/109 33/59/108 51/58/107
f 35/61/110 34/60/109 51/58/107
f 36/62/111 35/61/110 51/58/107
f 37/63/112 36/62/111 51/58/107
f 38/64/113 37/63/112 51/58/107
f 39/65/114 38/64/113 51/58/107
f 40/66/115 39/65/114 51/58/107
f 31/57/106 40/66/115 51/58/107
s 10
f 41/67/116 42/68/117 52/69/118
f 42/68/117 43/70/119 52/69/118
f 43/70/119 44/71/120 52/69/118
f 44/71/120 45/72/121 52/69/118
f 45/72/121 46/73/122 52/69/118
f 46/73/122 47/74/123 52/69/118
f 47/74/123 48/75/124 52/69/118
f 48/75/124 49/76/125 52/69/118
f 49/76/125 50/77/126 52/69/118
f 50/77/126 41/67/116 52/69/118
s 11
f 55/78/127 54/79/128 72/80/129 71/81/130
s 12
f 54/79/131 53/82/132 73/83/133 72/80/134
s 13
f 57/84/135 56/85/136 79/86/137 78/87/138
s 14
f 56/85/139 63/88/140 80/89/141 79/86/142
s 15
f 59/90/143 58/91/144 68/92/145 67/93/146
s 13
f 58/94/147 57/84/135 69/95/148 68/96/149
s 16
f 61/97/150 60/98/151 65/99/152 64/100/153
s 15
f 60/98/154 59/90/143 66/101/155 65/99/156
s 16
f 53/82/157 61/97/150 64/100/153
s 15
f 59/90/143 67/93/146 66/101/155
s 17
f 67/93/158 75/102/159 66/101/160
s 12
f 64/100/161 73/83/133 53/82/132
s 14
f 80/89/141 63/88/140 55/78/162
s 13
f 78/87/138 69/95/148 57/84/135
s 18
f 78/87/163 77/103/164 69/95/165
s 11
f 80/89/166 55/78/127 71/81/130
s 16
f 53/82/157 54/79/167 62/104/168 61/97/150
s 14
f 54/79/169 55/78/162 63/88/140 62/104/170
s 12
f 64/100/161 65/99/171 74/105/172 73/83/133
s 17
f 65/99/173 66/101/160 75/102/159 74/105/174
f 67/93/158 68/92/175 76/106/176 75/102/159
s 18
f 68/96/177 69/95/165 77/103/164 76/107/178
s 11
f 71/81/130 70/108/179 79/86/180 80/89/166
s 18
f 70/108/181 77/103/164 78/87/163 79/86/182
s 14
f 62/104/170 63/88/140 56/85/139 81/109/183
s 13
f 56/85/136 57/84/135 58/94/147 81/109/184
s 15
f 58/91/144 59/90/143 60/98/154 81/109/185
s 16
f 60/98/151 61/97/150 62/104/168 81/109/186
s 18
f 76/107/178 77/103/164 70/108/181 82/110/187
s 11
f 70/108/179 71/81/130 72/80/129 82/110/188
s 12
f 72/80/134 73/83/133 74/105/172 82/110/189
s 17
f 74/105/174 75/102/159 76/106/176 82/110/190
s off
f 83/111/191 84/112/192 94/113/193 93/114/194
f 84/112/195 85/115/196 95/116/197 94/113/198
f 85/115/199 86/117/200 96/118/201 95/116/202
f 86/117/203 87/119/204 97/120/205 96/118/206
f 87/119/207 88/121/208 98/122/209 97/120/210
f 88/121/211 89/123/212 99/124/213 98/122/214
f 89/123/215 90/125/216 100/126/217 99/124/218
f 90/125/219 91/127/220 101/128/221 100/126/222
f 91/127/223 92/129/224 102/130/225 101/128/226
f 92/129/227 83/131/228 93/132/229 102/130/230
s 19
f 84/133/231 83/134/232 103/135/233
f 85/136/234 84/133/231 103/135/233
f 86/137/235 85/136/234 103/135/233
f 87/138/236 86/137/235 103/135/233
f 88/139/237 87/138/236 103/135/233
f 89/140/238 88/139/237 103/135/233
f 90/141/239 89/140/238 103/135/233
f 91/142/240 90/141/239 103/135/233
f 92/143/241 91/142/240 103/135/233
f 83/134/232 92/143/241 103/135/233
s 20
f 93/144/242 94/145/243 104/146/244
f 94/145/243 95/147/245 104/146/244
f 95/147/245 96/148/246 104/146/244
f 96/148/246 97/149/247 104/146/244
f 97/149/247 98/150/248 104/146/244
f 98/150/248 99/151/249 104/146/244
f 99/151/249 100/152/250 104/146/244
f 100/152/250 101/153/251 104/146/244
f 101/153/251 102/154/252 104/146/244
f 102/154/252 93/144/242 104/146/244
