# This file uses feet as units for non-parametric coordinates.

mtllib decoration 5.mtl
g default
v 0.000000 32.161993 8.073963
v 8.073963 32.161993 0.000000
v 0.000000 37.665420 0.000000
v -8.073963 32.161993 0.000000
v 0.000000 26.658566 0.000000
v 0.000000 32.161993 -8.073963
v 0.000000 25.916184 8.073963
v 8.073963 25.916184 0.000000
v 0.000000 31.419612 0.000000
v -8.073963 25.916184 0.000000
v 0.000000 20.412757 0.000000
v 0.000000 25.916184 -8.073963
v 0.003388 -1.985334 8.746296
v 8.746296 -1.985334 -0.003388
v 0.003388 22.437607 8.746296
v 8.746296 22.437607 -0.003388
v -8.746296 22.437607 0.003388
v -0.003388 22.437607 -8.746296
v -8.746296 -1.985334 0.003388
v -0.003388 -1.985334 -8.746296
v 0.002756 35.562797 7.117714
v 7.117714 35.562797 -0.002756
v 0.002756 54.152170 7.117714
v 7.117714 54.152170 -0.002756
v -7.117714 54.152170 0.002756
v -0.002756 54.152170 -7.117714
v -7.117714 35.562797 0.002756
v -0.002756 35.562797 -7.117714
vt 0.500000 0.500000
vt 0.750000 0.500000
vt 0.500000 1.000000
vt 0.250000 0.500000
vt 0.500000 1.000000
vt 1.000000 0.500000
vt 1.250000 0.500000
vt 0.750000 0.500000
vt 0.500000 1.000000
vt 0.500000 0.500000
vt 0.250000 0.500000
vt 0.500000 1.000000
vt 1.000000 0.500000
vt 1.250000 0.500000
vt 0.375000 0.000000
vt 0.625000 0.000000
vt 0.625000 0.250000
vt 0.375000 0.250000
vt 0.625000 0.500000
vt 0.375000 0.500000
vt 0.625000 0.750000
vt 0.375000 0.750000
vt 0.625000 1.000000
vt 0.375000 1.000000
vt 0.875000 0.000000
vt 0.875000 0.250000
vt 0.125000 0.000000
vt 0.125000 0.250000
vt 0.375000 0.000000
vt 0.625000 0.000000
vt 0.625000 0.250000
vt 0.375000 0.250000
vt 0.625000 0.500000
vt 0.375000 0.500000
vt 0.625000 0.750000
vt 0.375000 0.750000
vt 0.625000 1.000000
vt 0.375000 1.000000
vt 0.875000 0.000000
vt 0.875000 0.250000
vt 0.125000 0.000000
vt 0.125000 0.250000
vn 0.490743 0.719959 0.490743
vn 0.490743 0.719959 0.490743
vn 0.490743 0.719959 0.490743
vn -0.490743 0.719959 0.490743
vn -0.490743 0.719959 0.490743
vn -0.490743 0.719959 0.490743
vn -0.490743 -0.719959 0.490744
vn -0.490744 -0.719959 0.490744
vn -0.490743 -0.719959 0.490744
vn 0.490743 -0.719959 0.490744
vn 0.490744 -0.719959 0.490744
vn 0.490743 -0.719959 0.490744
vn 0.490743 0.719959 -0.490743
vn 0.490743 0.719959 -0.490743
vn 0.490743 0.719959 -0.490743
vn -0.490743 0.719959 -0.490743
vn -0.490743 0.719959 -0.490743
vn -0.490743 0.719959 -0.490743
vn -0.490743 -0.719959 -0.490744
vn -0.490744 -0.719959 -0.490744
vn -0.490743 -0.719959 -0.490744
vn 0.490743 -0.719959 -0.490744
vn 0.490743 -0.719959 -0.490744
vn 0.490744 -0.719959 -0.490744
vn 0.490743 0.719959 0.490743
vn 0.490743 0.719959 0.490743
vn 0.490743 0.719959 0.490743
vn -0.490743 0.719959 0.490743
vn -0.490743 0.719959 0.490743
vn -0.490743 0.719959 0.490743
vn -0.490744 -0.719959 0.490743
vn -0.490744 -0.719959 0.490743
vn -0.490744 -0.719959 0.490743
vn 0.490744 -0.719959 0.490743
vn 0.490744 -0.719959 0.490743
vn 0.490744 -0.719959 0.490743
vn 0.490743 0.719959 -0.490743
vn 0.490743 0.719959 -0.490743
vn 0.490743 0.719959 -0.490743
vn -0.490743 0.719959 -0.490743
vn -0.490743 0.719959 -0.490743
vn -0.490743 0.719959 -0.490743
vn -0.490744 -0.719959 -0.490743
vn -0.490744 -0.719959 -0.490743
vn -0.490744 -0.719959 -0.490743
vn 0.490744 -0.719959 -0.490743
vn 0.490744 -0.719959 -0.490743
vn 0.490744 -0.719959 -0.490743
vn 0.707381 0.000000 0.706833
vn 0.707381 0.000000 0.706833
vn 0.707381 0.000000 0.706833
vn 0.707381 0.000000 0.706833
vn 0.000000 1.000000 0.000000
vn 0.000000 1.000000 0.000000
vn 0.000000 1.000000 0.000000
vn 0.000000 1.000000 0.000000
vn -0.707381 0.000000 -0.706833
vn -0.707381 0.000000 -0.706833
vn -0.707381 0.000000 -0.706833
vn -0.707381 0.000000 -0.706833
vn 0.000000 -1.000000 -0.000000
vn 0.000000 -1.000000 -0.000000
vn 0.000000 -1.000000 -0.000000
vn 0.000000 -1.000000 -0.000000
vn 0.706833 0.000000 -0.707381
vn 0.706833 0.000000 -0.707381
vn 0.706833 0.000000 -0.707381
vn 0.706833 0.000000 -0.707381
vn -0.706833 0.000000 0.707381
vn -0.706833 0.000000 0.707381
vn -0.706833 0.000000 0.707381
vn -0.706833 0.000000 0.707381
vn 0.707381 0.000000 0.706833
vn 0.707381 0.000000 0.706833
vn 0.707381 0.000000 0.706833
vn 0.707381 0.000000 0.706833
vn 0.000000 1.000000 0.000000
vn 0.000000 1.000000 0.000000
vn 0.000000 1.000000 0.000000
vn 0.000000 1.000000 0.000000
vn -0.707381 0.000000 -0.706833
vn -0.707381 0.000000 -0.706833
vn -0.707381 0.000000 -0.706833
vn -0.707381 0.000000 -0.706833
vn 0.000000 -1.000000 -0.000000
vn 0.000000 -1.000000 -0.000000
vn 0.000000 -1.000000 -0.000000
vn 0.000000 -1.000000 -0.000000
vn 0.706833 0.000000 -0.707381
vn 0.706833 0.000000 -0.707381
vn 0.706833 0.000000 -0.707381
vn 0.706833 0.000000 -0.707381
vn -0.706833 0.000000 0.707381
vn -0.706833 0.000000 0.707381
vn -0.706833 0.000000 0.707381
vn -0.706833 0.000000 0.707381
s off
g pasted__pPlatonic1
usemtl initialShadingGroup
f 2/2/1 3/3/2 1/1/3
f 3/3/4 4/4/5 1/1/6
f 4/4/7 5/5/8 1/1/9
f 1/1/10 5/5/11 2/2/12
f 6/6/13 3/3/14 2/2/15
f 6/6/16 4/7/17 3/3/18
f 6/6/19 5/5/20 4/7/21
f 6/6/22 2/2/23 5/5/24
f 8/8/25 9/9/26 7/10/27
f 9/9/28 10/11/29 7/10/30
f 10/11/31 11/12/32 7/10/33
f 7/10/34 11/12/35 8/8/36
f 12/13/37 9/9/38 8/8/39
f 12/13/40 10/14/41 9/9/42
f 12/13/43 11/12/44 10/14/45
f 12/13/46 8/8/47 11/12/48
f 13/15/49 14/16/50 16/17/51 15/18/52
f 15/18/53 16/17/54 18/19/55 17/20/56
f 17/20/57 18/19/58 20/21/59 19/22/60
f 19/22/61 20/21/62 14/23/63 13/24/64
f 14/16/65 20/25/66 18/26/67 16/17/68
f 19/27/69 13/15/70 15/18/71 17/28/72
f 21/29/73 22/30/74 24/31/75 23/32/76
f 23/32/77 24/31/78 26/33/79 25/34/80
f 25/34/81 26/33/82 28/35/83 27/36/84
f 27/36/85 28/35/86 22/37/87 21/38/88
f 22/30/89 28/39/90 26/40/91 24/31/92
f 27/41/93 21/29/94 23/32/95 25/42/96
